<?xml version="1.0" encoding="UTF-8" standalone="no"?><!DOCTYPE svg PUBLIC "-//W3C//DTD SVG 1.1//EN" "http://www.w3.org/Graphics/SVG/1.1/DTD/svg11.dtd"><svg width="100%" height="100%" viewBox="0 0 227 171" version="1.1" xmlns="http://www.w3.org/2000/svg" xmlns:xlink="http://www.w3.org/1999/xlink" xml:space="preserve" style="fill-rule:evenodd;clip-rule:evenodd;stroke-linecap:round;stroke-linejoin:round;stroke-miterlimit:1.5;"><g id="FINAL-DESIGN"><path d="M5.508,46.901c0,0 35.386,-39.957 54.653,-38.853c42.653,2.444 -59.502,146.195 -54.653,155.412c3.05,-8.357 9.036,-22.091 9.943,-23.722c26.115,-47.013 102.421,-154.463 121.1,-131.307c3.868,4.794 -84.633,157.729 -56.771,156.768c10.873,-0.376 103.7,-181.638 139.053,-156.859c-2.463,18.533 -94.528,145.925 -61.071,156.859c15.656,5.116 56.872,-33.072 63.128,-39.715" style="fill:none;stroke:#fff;stroke-width:10.25px;"/><rect x="5.115" y="67.484" width="216" height="35.904" style="fill:url(#_Linear1);"/></g><defs><linearGradient id="_Linear1" x1="0" y1="0" x2="1" y2="0" gradientUnits="userSpaceOnUse" gradientTransform="matrix(216,0,0,35.904,5.115,85.4363)"><stop offset="0" style="stop-color:#E06230;stop-opacity:1"/><stop offset="1" style="stop-color:#1C2551;stop-opacity:1"/></linearGradient></defs></svg>